<?xml version="1.0" encoding="UTF-8" standalone="no"?>
<!DOCTYPE svg PUBLIC "-//W3C//DTD SVG 1.1//EN"
 "http://www.w3.org/Graphics/SVG/1.1/DTD/svg11.dtd">
<!-- Generated by graphviz version 2.43.0 (0)
 -->
<!-- Title: CarShowroomERD Pages: 1 -->
<svg width="720pt" height="274pt"
 viewBox="0.00 0.00 720.00 274.34" xmlns="http://www.w3.org/2000/svg" xmlns:xlink="http://www.w3.org/1999/xlink">
<g id="graph0" class="graph" transform="scale(0.83 0.83) rotate(0) translate(4 327.5)">
<title>CarShowroomERD</title>
<polygon fill="white" stroke="transparent" points="-4,4 -4,-327.5 866,-327.5 866,4 -4,4"/>
<!-- Branch -->
<g id="node1" class="node">
<title>Branch</title>
<polygon fill="none" stroke="black" points="0,-142 0,-180 229,-180 229,-142 0,-142"/>
<text text-anchor="middle" x="34" y="-157.3" font-family="Times,serif" font-size="14.00">Branch</text>
<polyline fill="none" stroke="black" points="68,-142 68,-180 "/>
<text text-anchor="start" x="76" y="-164.8" font-family="Times,serif" font-size="14.00">BranchNumber (PK)</text>
<text text-anchor="start" x="76" y="-149.8" font-family="Times,serif" font-size="14.00">Address</text>
</g>
<!-- Employee -->
<g id="node2" class="node">
<title>Employee</title>
<polygon fill="none" stroke="black" points="296,-192.5 296,-305.5 544,-305.5 544,-192.5 296,-192.5"/>
<text text-anchor="middle" x="339.5" y="-245.3" font-family="Times,serif" font-size="14.00">Employee</text>
<polyline fill="none" stroke="black" points="383,-192.5 383,-305.5 "/>
<text text-anchor="start" x="391" y="-290.3" font-family="Times,serif" font-size="14.00">SSN (PK)</text>
<text text-anchor="start" x="391" y="-275.3" font-family="Times,serif" font-size="14.00">Phone</text>
<text text-anchor="start" x="391" y="-260.3" font-family="Times,serif" font-size="14.00">Name</text>
<text text-anchor="start" x="391" y="-245.3" font-family="Times,serif" font-size="14.00">Address</text>
<text text-anchor="start" x="391" y="-230.3" font-family="Times,serif" font-size="14.00">Profession</text>
<text text-anchor="start" x="391" y="-215.3" font-family="Times,serif" font-size="14.00">DOB</text>
<text text-anchor="start" x="391" y="-200.3" font-family="Times,serif" font-size="14.00">BranchNumber (FK)</text>
</g>
<!-- Branch&#45;&gt;Employee -->
<g id="edge1" class="edge">
<title>Branch&#45;&gt;Employee</title>
<path fill="none" stroke="black" d="M181.35,-180.09C212.08,-189 249.82,-199.94 286.09,-210.46"/>
<polygon fill="black" stroke="black" points="285.19,-213.85 295.77,-213.27 287.14,-207.12 285.19,-213.85"/>
<text text-anchor="middle" x="262.5" y="-211.8" font-family="Times,serif" font-size="14.00">1..N</text>
</g>
<!-- Car -->
<g id="node6" class="node">
<title>Car</title>
<polygon fill="none" stroke="black" points="304.5,-0.5 304.5,-173.5 535.5,-173.5 535.5,-0.5 304.5,-0.5"/>
<text text-anchor="middle" x="325.5" y="-83.3" font-family="Times,serif" font-size="14.00">Car</text>
<polyline fill="none" stroke="black" points="346.5,-0.5 346.5,-173.5 "/>
<text text-anchor="start" x="354.5" y="-158.3" font-family="Times,serif" font-size="14.00">ChassisNumber (PK)</text>
<text text-anchor="start" x="354.5" y="-143.3" font-family="Times,serif" font-size="14.00">Color</text>
<text text-anchor="start" x="354.5" y="-128.3" font-family="Times,serif" font-size="14.00">Price</text>
<text text-anchor="start" x="354.5" y="-113.3" font-family="Times,serif" font-size="14.00">ReleaseYear</text>
<text text-anchor="start" x="354.5" y="-98.3" font-family="Times,serif" font-size="14.00">Model</text>
<text text-anchor="start" x="354.5" y="-83.3" font-family="Times,serif" font-size="14.00">MotorSize</text>
<text text-anchor="start" x="354.5" y="-68.3" font-family="Times,serif" font-size="14.00">FuelType</text>
<text text-anchor="start" x="354.5" y="-53.3" font-family="Times,serif" font-size="14.00">TransmissionType</text>
<text text-anchor="start" x="354.5" y="-38.3" font-family="Times,serif" font-size="14.00">ManufacturingCompany</text>
<text text-anchor="start" x="354.5" y="-23.3" font-family="Times,serif" font-size="14.00">BranchNumber (FK)</text>
<text text-anchor="start" x="354.5" y="-8.3" font-family="Times,serif" font-size="14.00">SSN (FK Customer)</text>
</g>
<!-- Branch&#45;&gt;Car -->
<g id="edge2" class="edge">
<title>Branch&#45;&gt;Car</title>
<path fill="none" stroke="black" d="M193.66,-141.94C224.35,-134.46 260.34,-125.68 294.44,-117.37"/>
<polygon fill="black" stroke="black" points="295.59,-120.69 304.48,-114.92 293.93,-113.89 295.59,-120.69"/>
<text text-anchor="middle" x="262.5" y="-132.8" font-family="Times,serif" font-size="14.00">1..N</text>
</g>
<!-- WorksByContract -->
<g id="node3" class="node">
<title>WorksByContract</title>
<polygon fill="none" stroke="black" points="608,-255 608,-323 862,-323 862,-255 608,-255"/>
<text text-anchor="middle" x="679" y="-285.3" font-family="Times,serif" font-size="14.00">WorksByContract</text>
<polyline fill="none" stroke="black" points="750,-255 750,-323 "/>
<text text-anchor="start" x="758" y="-307.8" font-family="Times,serif" font-size="14.00">SSN (PK, FK)</text>
<text text-anchor="start" x="758" y="-292.8" font-family="Times,serif" font-size="14.00">MonthSalary</text>
<text text-anchor="start" x="758" y="-277.8" font-family="Times,serif" font-size="14.00">StartDate</text>
<text text-anchor="start" x="758" y="-262.8" font-family="Times,serif" font-size="14.00">EndDate</text>
</g>
<!-- Employee&#45;&gt;WorksByContract -->
<g id="edge3" class="edge">
<title>Employee&#45;&gt;WorksByContract</title>
<path fill="none" stroke="black" d="M544.26,-264.75C561.7,-266.98 579.73,-269.28 597.41,-271.54"/>
<polygon fill="black" stroke="black" points="597.41,-275.07 607.77,-272.87 598.3,-268.13 597.41,-275.07"/>
<text text-anchor="middle" x="576" y="-273.8" font-family="Times,serif" font-size="14.00">1..1</text>
</g>
<!-- ByWorkingTime -->
<g id="node4" class="node">
<title>ByWorkingTime</title>
<polygon fill="none" stroke="black" points="614,-182.5 614,-235.5 856,-235.5 856,-182.5 614,-182.5"/>
<text text-anchor="middle" x="679" y="-205.3" font-family="Times,serif" font-size="14.00">ByWorkingTime</text>
<polyline fill="none" stroke="black" points="744,-182.5 744,-235.5 "/>
<text text-anchor="start" x="752" y="-220.3" font-family="Times,serif" font-size="14.00">SSN (PK, FK)</text>
<text text-anchor="start" x="752" y="-205.3" font-family="Times,serif" font-size="14.00">HourSalary</text>
<text text-anchor="start" x="752" y="-190.3" font-family="Times,serif" font-size="14.00">HourWork</text>
</g>
<!-- Employee&#45;&gt;ByWorkingTime -->
<g id="edge4" class="edge">
<title>Employee&#45;&gt;ByWorkingTime</title>
<path fill="none" stroke="black" d="M544.26,-233.25C563.87,-230.74 584.21,-228.14 603.97,-225.62"/>
<polygon fill="black" stroke="black" points="604.45,-229.08 613.93,-224.34 603.57,-222.14 604.45,-229.08"/>
<text text-anchor="middle" x="576" y="-233.8" font-family="Times,serif" font-size="14.00">1..1</text>
</g>
<!-- Customer -->
<g id="node5" class="node">
<title>Customer</title>
<polygon fill="none" stroke="black" points="30,-53 30,-121 199,-121 199,-53 30,-53"/>
<text text-anchor="middle" x="73" y="-83.3" font-family="Times,serif" font-size="14.00">Customer</text>
<polyline fill="none" stroke="black" points="116,-53 116,-121 "/>
<text text-anchor="start" x="124" y="-105.8" font-family="Times,serif" font-size="14.00">SSN (PK)</text>
<text text-anchor="start" x="124" y="-90.8" font-family="Times,serif" font-size="14.00">Name</text>
<text text-anchor="start" x="124" y="-75.8" font-family="Times,serif" font-size="14.00">Address</text>
<text text-anchor="start" x="124" y="-60.8" font-family="Times,serif" font-size="14.00">Phone</text>
</g>
<!-- Customer&#45;&gt;Car -->
<g id="edge5" class="edge">
<title>Customer&#45;&gt;Car</title>
<path fill="none" stroke="black" d="M199.24,-87C228.53,-87 262.08,-87 294,-87"/>
<polygon fill="black" stroke="black" points="294.3,-90.5 304.3,-87 294.3,-83.5 294.3,-90.5"/>
<text text-anchor="middle" x="262.5" y="-90.8" font-family="Times,serif" font-size="14.00">1..N</text>
</g>
</g>
</svg>
